<?xml version="1.0" encoding="utf-8"?>
<!-- Generator: Adobe Illustrator 27.4.1, SVG Export Plug-In . SVG Version: 6.00 Build 0)  -->
<svg version="1.1" id="Layer_1" xmlns="http://www.w3.org/2000/svg" xmlns:xlink="http://www.w3.org/1999/xlink" x="0px" y="0px"
	 viewBox="0 0 32 32" style="enable-background:new 0 0 32 32;" xml:space="preserve">
<style type="text/css">
	.st0{fill:#1B1B1B;}
	.st1{fill:none;}
	.st2{fill:#212121;}
</style>
<g id="Group_5105" transform="translate(-1369 -858)">
	<g id="Group_5156">
		<path id="Instagram_Glyph_Black" class="st0" d="M1381.7,866.1c-0.7,0-1.3,0.1-1.9,0.4c-1.1,0.4-1.9,1.3-2.3,2.3
			c-0.2,0.6-0.4,1.3-0.4,1.9c0,0.9,0,1.1,0,3.3s0,2.4,0.1,3.3c0,0.7,0.1,1.3,0.4,1.9c0.4,1.1,1.3,1.9,2.3,2.3
			c0.6,0.2,1.3,0.4,1.9,0.4c0.9,0,1.1,0,3.3,0c2.2,0,2.4,0,3.3-0.1c0.7,0,1.3-0.1,1.9-0.4c1.1-0.4,1.9-1.3,2.3-2.3
			c0.2-0.6,0.4-1.3,0.4-1.9c0-0.9,0-1.1,0-3.3c0-2.2,0-2.4-0.1-3.3c0-0.7-0.1-1.3-0.4-1.9c-0.2-0.5-0.5-1-0.9-1.4
			c-0.4-0.4-0.9-0.7-1.4-0.9c-0.6-0.2-1.3-0.4-1.9-0.4c-0.9,0-1.1,0-3.3,0C1382.8,866,1382.5,866,1381.7,866.1 M1381.8,880.5
			c-0.5,0-1-0.1-1.5-0.3c-0.3-0.1-0.7-0.3-0.9-0.6c-0.3-0.3-0.5-0.6-0.6-0.9c-0.2-0.5-0.3-1-0.3-1.5c0-0.8,0-1.1-0.1-3.2
			s0-2.4,0-3.2c0-0.5,0.1-1,0.3-1.5c0.3-0.7,0.8-1.3,1.5-1.5c0.5-0.2,1-0.3,1.5-0.3c0.8,0,1.1,0,3.2-0.1c2.1,0,2.4,0,3.2,0
			c0.5,0,1,0.1,1.5,0.3c0.7,0.3,1.3,0.8,1.5,1.5c0.2,0.5,0.3,1,0.3,1.5c0,0.8,0,1.1,0.1,3.2s0,2.4,0,3.2c0,0.5-0.1,1-0.3,1.5
			c-0.3,0.7-0.8,1.3-1.5,1.5c-0.5,0.2-1,0.3-1.5,0.3c-0.8,0-1.1,0-3.2,0.1C1382.9,880.6,1382.6,880.6,1381.8,880.5 M1388.3,869.7
			c0,0.5,0.4,1,1,1c0.5,0,1-0.4,1-1c0-0.5-0.4-1-1-1C1388.7,868.8,1388.3,869.2,1388.3,869.7
			C1388.3,869.7,1388.3,869.7,1388.3,869.7 M1380.9,874c0,2.3,1.8,4.1,4.1,4.1c2.3,0,4.1-1.8,4.1-4.1s-1.8-4.1-4.1-4.1
			C1382.7,869.9,1380.9,871.7,1380.9,874C1380.9,874,1380.9,874,1380.9,874 M1382.3,874c0-1.5,1.2-2.7,2.7-2.7
			c1.5,0,2.7,1.2,2.7,2.7c0,1.5-1.2,2.7-2.7,2.7c0,0,0,0,0,0C1383.5,876.7,1382.3,875.5,1382.3,874"/>
		<g id="Rectangle_166" transform="translate(1369 858)">
			<path class="st1" d="M3,0h26c1.7,0,3,1.3,3,3v26c0,1.7-1.3,3-3,3H3c-1.7,0-3-1.3-3-3V3C0,1.3,1.3,0,3,0z"/>
			<g>
				<path class="st2" d="M29,32H3c-1.7,0-3-1.3-3-3V3c0-1.7,1.3-3,3-3h26c1.7,0,3,1.3,3,3v26C32,30.7,30.7,32,29,32z M3,2
					C2.4,2,2,2.4,2,3v26c0,0.6,0.4,1,1,1h26c0.6,0,1-0.4,1-1V3c0-0.6-0.4-1-1-1H3z"/>
			</g>
		</g>
	</g>
</g>
</svg>
