<?xml version="1.0" encoding="UTF-8"?>
<svg id="Layer_10" data-name="Layer 10" xmlns="http://www.w3.org/2000/svg" viewBox="0 0 64.37 49.52">
  <defs>
    <style>
      .cls-1 {
        fill: #e8f6fb;
      }

      .cls-1, .cls-2, .cls-3, .cls-4, .cls-5 {
        stroke-width: 0px;
      }

      .cls-2 {
        fill: #1a1a1a;
      }

      .cls-3 {
        fill: #e92630;
      }

      .cls-4 {
        fill: #00c1e7;
      }

      .cls-5 {
        fill: #fff;
      }
    </style>
  </defs>
  <g>
    <polygon class="cls-2" points="63.26 48.41 1.11 48.41 6.96 41.34 59.53 41.34 63.26 48.41"/>
    <path class="cls-2" d="M59.53,41.34l3.73,7.07H1.11l5.85-7.07h52.58M59.53,40.23H6.96c-.33,0-.64.15-.85.4L.25,47.7c-.27.33-.33.79-.15,1.18.18.39.57.64,1,.64h62.15c.39,0,.75-.2.95-.54.2-.33.21-.75.03-1.09l-3.73-7.07c-.19-.36-.57-.59-.98-.59h0Z"/>
  </g>
  <polygon class="cls-4" points="60.21 47 4.38 47 7.94 42.59 58.5 42.59 60.21 47"/>
  <g>
    <polyline class="cls-5" points="12.42 48.99 19.25 25.69 26.09 2.39 43.54 7.51 61 12.63 54.17 35.93"/>
    <path class="cls-2" d="M10.09,49.5s0-.04.01-.05l.45-1.52.45-1.52.45-1.52.45-1.52.45-1.52.45-1.52.45-1.52.45-1.52.45-1.52.45-1.52.45-1.52.45-1.52.45-1.52.45-1.52.45-1.52.45-1.52.45-1.52.45-1.52.45-1.52.45-1.52.45-1.52.45-1.52.45-1.52.45-1.52.45-1.52.45-1.52.45-1.52.45-1.52.45-1.52.45-1.52.45-1.52.45-1.52s.01-.03.02-.05.01-.03.02-.05.01-.03.02-.05.02-.03.02-.05.02-.03.03-.05.02-.03.03-.04.02-.03.03-.04.02-.03.03-.04.02-.03.03-.04.02-.03.04-.04.02-.02.04-.04.03-.02.04-.03.03-.02.04-.03.03-.02.04-.03.03-.02.04-.03.03-.02.04-.03.03-.02.05-.02.03-.01.05-.02.03-.01.05-.02.03-.01.05-.02.03,0,.05-.01.03,0,.05-.01.03,0,.05,0,.03,0,.05,0,.03,0,.05,0,.03,0,.05,0,.03,0,.05,0,.03,0,.05,0,.03,0,.05,0,.04,0,.05,0,.04,0,.05.01.04,0,.05.01l1.15.34,1.15.34,1.15.34,1.15.34,1.15.34,1.15.34,1.15.34,1.15.34,1.15.34,1.15.34,1.15.34,1.15.34,1.15.34,1.15.34,1.15.34,1.15.34,1.15.34,1.15.34,1.15.34,1.15.34,1.15.34,1.15.34,1.15.34,1.15.34,1.15.34,1.15.34,1.15.34,1.15.34,1.15.34,1.15.34,1.15.34,1.15.34s.03.01.05.02.03.01.05.02.03.01.05.02.03.02.05.02.03.02.05.03.03.02.04.03.03.02.04.03.03.02.04.03.03.02.04.03.03.02.04.04.02.02.04.04.02.03.03.04.02.03.03.04.02.03.03.04.02.03.03.04.02.03.03.04.02.03.02.05.01.03.02.05.01.03.02.05.01.03.02.05,0,.03.01.05,0,.03.01.05,0,.03,0,.05,0,.03,0,.05,0,.03,0,.05,0,.03,0,.05,0,.03,0,.05,0,.03,0,.05,0,.04,0,.05,0,.04,0,.05,0,.04-.01.05,0,.04-.01.05l-.45,1.52-.45,1.52-.45,1.52-.45,1.52-.45,1.52-.45,1.52-.45,1.52-.45,1.52-.45,1.52-.45,1.52-.45,1.52-.45,1.52-.45,1.52-.45,1.52-.45,1.52-.45,1.52-.45,1.52-.45,1.52-.45,1.52-.45,1.52-.45,1.52-.45,1.52-.45,1.52-.53,2.26M12.43,49.03l.68.2.68.2"/>
  </g>
  <polyline class="cls-1" points="20.12 49.38 13.78 47.57 20.1 25.49 26.41 3.41 42.95 8.14 59.49 12.87 53.18 34.95 49.25 48.69"/>
  <path class="cls-2" d="M61.62,48.1H1.47c-.31,0-.55-.25-.55-.55s.25-.55.55-.55h60.15c.31,0,.55.25.55.55s-.25.55-.55.55Z"/>
  <path class="cls-2" d="M63.65,49.05H3.5c-.31,0-.55-.25-.55-.55s.25-.55.55-.55h60.15c.31,0,.55.25.55.55s-.25.55-.55.55Z"/>
  <polygon class="cls-3" points="28.97 41.89 21.94 28.54 27.53 26.18 31.02 33.48 51.31 19.19 54.07 23.59 28.97 41.89"/>
  <path class="cls-2" d="M63.27,49.52H3.11c-.31,0-.55-.25-.55-.55s.25-.55.55-.55h60.15c.31,0,.55.25.55.55s-.25.55-.55.55Z"/>
</svg>