<?xml version="1.0" encoding="UTF-8"?>
<svg xmlns="http://www.w3.org/2000/svg" viewBox="0 0 44.31 44.31">
  <defs>
    <style>
      .cls-1 {
        fill: #e8f6fb;
      }

      .cls-1, .cls-2, .cls-3, .cls-4, .cls-5 {
        stroke-width: 0px;
      }

      .cls-2 {
        fill: #1a1a1a;
      }

      .cls-3 {
        fill: #00c0e7;
      }

      .cls-4 {
        fill: #e7f6fb;
      }

      .cls-5 {
        fill: #fff;
      }
    </style>
  </defs>
  <g id="Layer_1" data-name="Layer 1">
    <g>
      <path class="cls-1" d="M22.16,40.85c-10.33,0-18.7-8.37-18.7-18.7S11.83,3.46,22.16,3.46c7.55,0,14.06,4.48,17.01,10.93.08.18.16.37.24.55.93,2.22,1.44,4.66,1.44,7.22,0,10.33-8.37,18.7-18.7,18.7Z"/>
      <path class="cls-4" d="M22.16,39.34c-9.49,0-17.19-7.69-17.19-17.19S12.66,4.97,22.16,4.97c7,0,13.03,4.19,15.71,10.2.95,2.14,1.48,4.5,1.48,6.99,0,9.49-7.69,17.19-17.19,17.19Z"/>
    </g>
    <g>
      <circle class="cls-2" cx="22.01" cy="3.63" r="3.55"/>
      <circle class="cls-3" cx="22.01" cy="3.63" r="2.49"/>
    </g>
    <path class="cls-2" d="M40.55,12.43l-1.46.59c-2.11-3.91-5.56-6.99-9.75-8.6v1.63c3.55,1.51,6.49,4.18,8.34,7.54l-1.55.63c-.17.07-.19.29-.05.4l3.66,2.66c.14.1.33.02.36-.15l.77-4.46c.03-.18-.15-.32-.31-.25Z"/>
    <g>
      <circle class="cls-2" cx="40.43" cy="22.08" r="3.55"/>
      <circle class="cls-3" cx="40.43" cy="22.08" r="2.49"/>
    </g>
    <path class="cls-2" d="M31.63,40.86l-.59-1.46c3.91-2.11,6.99-5.56,8.6-9.75h-1.63c-1.51,3.55-4.18,6.49-7.54,8.34l-.63-1.55c-.07-.17-.29-.19-.4-.05l-2.66,3.66c-.1.14-.02.33.15.36l4.46.77c.18.03.32-.15.25-.31Z"/>
    <g>
      <circle class="cls-2" cx="22.01" cy="40.53" r="3.55"/>
      <circle class="cls-3" cx="22.01" cy="40.53" r="2.49"/>
    </g>
    <path class="cls-2" d="M3.48,31.73l1.46-.59c2.11,3.91,5.56,6.99,9.75,8.6v-1.63c-3.55-1.51-6.49-4.18-8.34-7.54l1.55-.63c.17-.07.19-.29.05-.4l-3.66-2.66c-.14-.1-.33-.02-.36.15l-.77,4.46c-.03.18.15.32.31.25Z"/>
    <g>
      <circle class="cls-2" cx="3.6" cy="22.08" r="3.55"/>
      <circle class="cls-3" cx="3.6" cy="22.08" r="2.49"/>
    </g>
    <path class="cls-2" d="M12.4,3.31l.59,1.46c-3.91,2.11-6.99,5.56-8.6,9.75h1.63c1.51-3.55,4.18-6.49,7.54-8.34l.63,1.55c.07.17.29.19.4.05l2.66-3.66c.1-.14.02-.33-.15-.36l-4.46-.77c-.18-.03-.32.15-.25.31Z"/>
    <g>
      <path class="cls-2" d="M24.12,23.21l-.04-4.46c.16,0,.32-.02.47-.03,1.7-.13,3.11-1.33,3.52-2.97l.37-1.48c.13-.53-.19-1.06-.71-1.19-.52-.13-1.06.19-1.19.71l-.37,1.48c-.21.83-.92,1.43-1.78,1.49-.8.06-1.7.1-2.67.1-.25,0-.51,0-.77.02-2.01.12-3.72,1.49-4.24,3.42l-.64,2.32c-.14.52.17,1.06.69,1.2.09.02.17.04.26.04.43,0,.83-.29.95-.72l.64-2.32c.13-.49.41-.91.76-1.25l-.03,3.64-.98,7.25c-.08.6.34,1.15.93,1.22.05,0,.1,0,.15,0,.54,0,1.01-.4,1.08-.94l.95-7.05h.5l.95,7.05c.07.55.54.94,1.08.94.05,0,.1,0,.15,0,.6-.08,1.02-.63.93-1.22l-.97-7.25Z"/>
      <path class="cls-2" d="M21.74,16.72c1.2,0,2.18-.98,2.18-2.18s-.98-2.18-2.18-2.18-2.18.98-2.18,2.18c0,1.2.98,2.18,2.18,2.18Z"/>
    </g>
  </g>
  <g id="Layer_1_copy_3" data-name="Layer 1 copy 3">
    <g>
      <path class="cls-5" d="M22.16,40.85c-10.33,0-18.7-8.37-18.7-18.7S11.83,3.46,22.16,3.46c7.55,0,14.06,4.48,17.01,10.93.08.18.16.37.24.55.93,2.22,1.44,4.66,1.44,7.22,0,10.33-8.37,18.7-18.7,18.7Z"/>
      <path class="cls-4" d="M22.16,36.47c-7.91,0-14.32-6.41-14.32-14.32s6.41-14.32,14.32-14.32c5.83,0,10.85,3.49,13.08,8.49.79,1.78,1.23,3.75,1.23,5.82,0,7.91-6.41,14.32-14.32,14.32Z"/>
    </g>
    <g>
      <circle class="cls-2" cx="22.01" cy="3.63" r="3.55"/>
      <circle class="cls-3" cx="22.01" cy="3.63" r="2.49"/>
    </g>
    <path class="cls-2" d="M40.55,12.43l-1.46.59c-2.11-3.91-5.56-6.99-9.75-8.6v1.63c3.55,1.51,6.49,4.18,8.34,7.54l-1.55.63c-.17.07-.19.29-.05.4l3.66,2.66c.14.1.33.02.36-.15l.77-4.46c.03-.18-.15-.32-.31-.25Z"/>
    <g>
      <circle class="cls-2" cx="40.43" cy="22.08" r="3.55"/>
      <circle class="cls-3" cx="40.43" cy="22.08" r="2.49"/>
    </g>
    <path class="cls-2" d="M31.63,40.86l-.59-1.46c3.91-2.11,6.99-5.56,8.6-9.75h-1.63c-1.51,3.55-4.18,6.49-7.54,8.34l-.63-1.55c-.07-.17-.29-.19-.4-.05l-2.66,3.66c-.1.14-.02.33.15.36l4.46.77c.18.03.32-.15.25-.31Z"/>
    <g>
      <circle class="cls-2" cx="22.01" cy="40.53" r="3.55"/>
      <circle class="cls-3" cx="22.01" cy="40.53" r="2.49"/>
    </g>
    <path class="cls-2" d="M3.48,31.73l1.46-.59c2.11,3.91,5.56,6.99,9.75,8.6v-1.63c-3.55-1.51-6.49-4.18-8.34-7.54l1.55-.63c.17-.07.19-.29.05-.4l-3.66-2.66c-.14-.1-.33-.02-.36.15l-.77,4.46c-.03.18.15.32.31.25Z"/>
    <g>
      <circle class="cls-2" cx="3.6" cy="22.08" r="3.55"/>
      <circle class="cls-3" cx="3.6" cy="22.08" r="2.49"/>
    </g>
    <path class="cls-2" d="M12.4,3.31l.59,1.46c-3.91,2.11-6.99,5.56-8.6,9.75h1.63c1.51-3.55,4.18-6.49,7.54-8.34l.63,1.55c.07.17.29.19.4.05l2.66-3.66c.1-.14.02-.33-.15-.36l-4.46-.77c-.18-.03-.32.15-.25.31Z"/>
  </g>
  <g id="dude">
    <g>
      <path class="cls-2" d="M24.12,23.21l-.04-4.46c.16,0,.32-.02.47-.03,1.7-.13,3.11-1.33,3.52-2.97l.37-1.48c.13-.53-.19-1.06-.71-1.19-.52-.13-1.06.19-1.19.71l-.37,1.48c-.21.83-.92,1.43-1.78,1.49-.8.06-1.7.1-2.67.1-.25,0-.51,0-.77.02-2.01.12-3.72,1.49-4.24,3.42l-.64,2.32c-.14.52.17,1.06.69,1.2.09.02.17.04.26.04.43,0,.83-.29.95-.72l.64-2.32c.13-.49.41-.91.76-1.25l-.03,3.64-.98,7.25c-.08.6.34,1.15.93,1.22.05,0,.1,0,.15,0,.54,0,1.01-.4,1.08-.94l.95-7.05h.5l.95,7.05c.07.55.54.94,1.08.94.05,0,.1,0,.15,0,.6-.08,1.02-.63.93-1.22l-.97-7.25Z"/>
      <path class="cls-2" d="M21.74,16.72c1.2,0,2.18-.98,2.18-2.18s-.98-2.18-2.18-2.18-2.18.98-2.18,2.18c0,1.2.98,2.18,2.18,2.18Z"/>
    </g>
  </g>
</svg>