<?xml version="1.0" encoding="UTF-8"?>
<svg id="Layer_3" data-name="Layer 3" xmlns="http://www.w3.org/2000/svg" viewBox="0 0 75.45 64.89">
  <defs>
    <style>
      .cls-1 {
        fill: #e8f6fb;
        stroke: #e9f6fb;
        stroke-miterlimit: 10;
      }

      .cls-1, .cls-2 {
        stroke-width: 2px;
      }

      .cls-2 {
        fill: #00c1e7;
        stroke: #1a1a1a;
        stroke-linecap: round;
        stroke-linejoin: round;
      }

      .cls-3 {
        fill: #231f20;
        font-family: SourceSansPro-Bold, 'Source Sans Pro';
        font-size: 37px;
        font-weight: 700;
      }
    </style>
  </defs>
  <path class="cls-2" d="m70.29,13.33H22.63c-2.3,0-4.16,1.86-4.16,4.16v33.21c0,2.3,1.86,4.16,4.16,4.16h41.71s10.1,9.03,10.1,9.03V17.49c0-2.3-1.86-4.16-4.16-4.16Z"/>
  <path class="cls-2" d="m5.16,1h47.66c2.3,0,4.16,1.86,4.16,4.16v33.21c0,2.3-1.86,4.16-4.16,4.16H11.1L1,51.56V5.16C1,2.86,2.86,1,5.16,1Z"/>
  <path class="cls-1" d="m5.04,42.54V6.54s.04-1.72,1.65-1.7,43.98.02,43.98.02c0,0,2.23.07,2.26,2.33.03,2.25,0,29.02,0,29.02,0,0-.21,2.04-2.06,2.12s-41.74.06-41.74.06l-4.09,4.16Z"/>
  <text class="cls-3" transform="translate(22.55 33.74)"><tspan x="0" y="0">!</tspan></text>
</svg>