<svg xmlns="http://www.w3.org/2000/svg" width="53.168" height="53.566" viewBox="0 0 53.168 53.566">
  <g id="ICONS_scams" transform="translate(-794.232 -397.891)">
    <g id="Layer_295" transform="translate(794.834 399.864)">
      <path id="Path_931" data-name="Path 931" d="M843.926,434.427h-39.3l19.386-34.017Z" transform="translate(-797.087 -400.41)" fill="#fff"/>
      <rect id="Rectangle_1487" data-name="Rectangle 1487" width="12.039" height="7.731" transform="translate(0 9.791)" fill="#e8f6fb"/>
    </g>
    <g id="Scams" transform="translate(794.232 397.891)">
      <g id="Group_5066" data-name="Group 5066" transform="translate(0 11.208)">
        <g id="Group_5062" data-name="Group 5062" transform="translate(0 2.076)">
          <g id="Group_5061" data-name="Group 5061">
            <rect id="Rectangle_1488" data-name="Rectangle 1488" width="1.104" height="12.712" rx="0.552" transform="translate(0.001 6.747) rotate(-90.03)" fill="#1a1a1a"/>
            <g id="Group_5060" data-name="Group 5060" transform="translate(0.027)">
              <path id="Path_932" data-name="Path 932" d="M800.1,414.983h0a.564.564,0,0,0-.783.055l-4.919,5.639a.547.547,0,0,0,.055.775h0a.564.564,0,0,0,.783-.055l4.919-5.639A.547.547,0,0,0,800.1,414.983Z" transform="translate(-794.267 -414.851)" fill="#1a1a1a"/>
              <path id="Path_933" data-name="Path 933" d="M803.037,415.013h0a.564.564,0,0,1,.783.055l4.9,5.608a.547.547,0,0,1-.055.775h0a.564.564,0,0,1-.783-.055l-4.9-5.608A.547.547,0,0,1,803.037,415.013Z" transform="translate(-796.126 -414.857)" fill="#1a1a1a"/>
            </g>
          </g>
          <path id="Path_934" data-name="Path 934" d="M801.121,414.97l4.645,5.569-9.266.008Z" transform="translate(-794.724 -414.877)" fill="#e9f6fb"/>
        </g>
        <rect id="Rectangle_1489" data-name="Rectangle 1489" width="1.112" height="8.843" rx="0.556" transform="translate(0.045 0.008)" fill="#1a1a1a"/>
        <rect id="Rectangle_1490" data-name="Rectangle 1490" width="1.112" height="8.843" rx="0.556" transform="translate(11.645)" fill="#1a1a1a"/>
        <g id="Group_5065" data-name="Group 5065" transform="translate(0.048 0.011)">
          <g id="Group_5064" data-name="Group 5064">
            <rect id="Rectangle_1491" data-name="Rectangle 1491" width="1.104" height="12.712" rx="0.552" transform="translate(12.753 0.013) rotate(89.97)" fill="#1a1a1a"/>
            <g id="Group_5063" data-name="Group 5063">
              <path id="Path_935" data-name="Path 935" d="M801.105,417.373h0a.56.56,0,0,1-.775.117l-5.812-4.284a.55.55,0,0,1-.117-.768h0a.56.56,0,0,1,.775-.117l5.812,4.284A.55.55,0,0,1,801.105,417.373Z" transform="translate(-794.294 -412.214)" fill="#1a1a1a"/>
              <path id="Path_936" data-name="Path 936" d="M801.821,417.388h0a.551.551,0,0,0,.775.11l5.718-4.222a.55.55,0,0,0,.117-.768h0a.551.551,0,0,0-.775-.11l-5.718,4.222A.55.55,0,0,0,801.821,417.388Z" transform="translate(-795.902 -412.23)" fill="#1a1a1a"/>
            </g>
          </g>
          <path id="Path_937" data-name="Path 937" d="M801.263,416.64l-4.183-3.07,8.318.031Z" transform="translate(-794.898 -412.508)" fill="#e9f6fb"/>
        </g>
      </g>
      <g id="Group_5068" data-name="Group 5068" transform="translate(41.197 6.963)">
        <path id="Path_938" data-name="Path 938" d="M855.595,421.475a1.22,1.22,0,0,0,.642-.133,2.343,2.343,0,0,0,.689-.611,18.793,18.793,0,0,0,1.065-1.645,1.036,1.036,0,0,0,.125-.29.763.763,0,0,0-.4-.822s-1.88-.838-1.888-.846a.709.709,0,0,0-.407-.11.839.839,0,0,0-.76.423s-.329.681-.345.7c-.055.086-.117.063-.117.063a6.15,6.15,0,0,1-1.269-.7,9.014,9.014,0,0,1-1.363-1.222,8.406,8.406,0,0,1-.987-1.245,4.808,4.808,0,0,1-.454-.885c-.063-.094.055-.149.055-.149s.7-.337.7-.345a1,1,0,0,0,.211-.172.83.83,0,0,0,.141-.885l-.877-1.966a1.817,1.817,0,0,0-.133-.2.747.747,0,0,0-.956-.133s-.963.6-.979.6a4.517,4.517,0,0,0-1.05.791h0a1.279,1.279,0,0,0-.415.932,1.555,1.555,0,0,0,.031.274,9.9,9.9,0,0,0,8.632,8.577h.094Z" transform="translate(-846.83 -407.517)" fill="#e9f6fb" stroke="#1a1a1a" stroke-miterlimit="10" stroke-width="1.33"/>
        <g id="Group_5067" data-name="Group 5067" transform="translate(5.459)">
          <path id="Path_939" data-name="Path 939" d="M857.368,410.289a2.454,2.454,0,0,0-1.708-3.509" transform="translate(-854.203 -406.78)" fill="none" stroke="#231f20" stroke-linecap="round" stroke-linejoin="round" stroke-width="1.21"/>
          <path id="Path_940" data-name="Path 940" d="M855.886,410.732a1.635,1.635,0,0,0-1.136-2.342" transform="translate(-854.006 -407.129)" fill="none" stroke="#231f20" stroke-linecap="round" stroke-linejoin="round" stroke-width="0.96"/>
          <path id="Path_941" data-name="Path 941" d="M854.521,410.97a1.038,1.038,0,0,0-.721-1.48" transform="translate(-853.8 -407.367)" fill="none" stroke="#231f20" stroke-linecap="round" stroke-linejoin="round" stroke-width="0.96"/>
        </g>
      </g>
      <rect id="Rectangle_1492" data-name="Rectangle 1492" width="3.893" height="12.477" rx="1.946" transform="translate(29.738 26.121) rotate(180)" fill="#00c1e7" stroke="#1a1a1a" stroke-miterlimit="10" stroke-width="1"/>
      <circle id="Ellipse_380" data-name="Ellipse 380" cx="1.942" cy="1.942" r="1.942" transform="translate(25.846 27.758)" fill="#00c1e7" stroke="#1a1a1a" stroke-miterlimit="10" stroke-width="1"/>
      <path id="Path_942" data-name="Path 942" d="M845.179,434a.929.929,0,0,0-.133-.47l-20.271-35.106a1.062,1.062,0,0,0-1.449-.392,1.03,1.03,0,0,0-.2.172,1,1,0,0,0-.376.368l-20.192,34.972a.927.927,0,0,0-.055.157,1.04,1.04,0,0,0-.227.65,1.058,1.058,0,0,0,1.057,1.057h40.831a1.058,1.058,0,0,0,1.057-1.057,1,1,0,0,0-.063-.345Zm-21.367-33.014,18.649,32.294H805.17l18.649-32.294Z" transform="translate(-795.977 -397.891)" fill="#1a1a1a"/>
      <g id="Group_5070" data-name="Group 5070" transform="translate(20.527 39.531)">
        <path id="Path_943" data-name="Path 943" d="M833.5,457.885h-9.4l-.854-5.984,11.083-.07Z" transform="translate(-821.049 -449.113)" fill="#e7f6fb"/>
        <rect id="Rectangle_1493" data-name="Rectangle 1493" width="1.206" height="12.211" rx="0.603" transform="translate(13.934 1.973) rotate(90)" fill="#1a1a1a"/>
        <rect id="Rectangle_1494" data-name="Rectangle 1494" width="1.206" height="10.347" rx="0.603" transform="translate(12.9 8.38) rotate(90)" fill="#1a1a1a"/>
        <rect id="Rectangle_1495" data-name="Rectangle 1495" width="1.206" height="11.255" rx="0.603" transform="translate(13.448 5.012) rotate(90)" fill="#1a1a1a"/>
        <rect id="Rectangle_1496" data-name="Rectangle 1496" width="1.206" height="7.676" rx="0.603" transform="translate(12.861 1.843) rotate(8.11)" fill="#1a1a1a"/>
        <rect id="Rectangle_1497" data-name="Rectangle 1497" width="1.206" height="11.373" rx="0.603" transform="translate(1.351 0.155) rotate(-7.37)" fill="#1a1a1a"/>
        <rect id="Rectangle_1498" data-name="Rectangle 1498" width="1.206" height="9.36" rx="0.603" transform="translate(12.101 10.339) rotate(90)" fill="#1a1a1a"/>
        <rect id="Rectangle_1499" data-name="Rectangle 1499" width="1.206" height="6.853" rx="0.54" transform="translate(4.825 2.318)" fill="#1a1a1a"/>
        <rect id="Rectangle_1500" data-name="Rectangle 1500" width="1.206" height="6.853" rx="0.54" transform="translate(7.3 2.318)" fill="#1a1a1a"/>
        <rect id="Rectangle_1501" data-name="Rectangle 1501" width="1.206" height="6.853" rx="0.54" transform="translate(9.775 2.318)" fill="#1a1a1a"/>
        <g id="Group_5069" data-name="Group 5069" transform="translate(3.995 11.952)">
          <circle id="Ellipse_381" data-name="Ellipse 381" cx="1.042" cy="1.042" r="1.042" fill="#1a1a1a"/>
          <circle id="Ellipse_382" data-name="Ellipse 382" cx="1.042" cy="1.042" r="1.042" transform="translate(4.786)" fill="#1a1a1a"/>
        </g>
        <rect id="Rectangle_1502" data-name="Rectangle 1502" width="1.206" height="2.365" rx="0.603" transform="translate(2.365 0.031) rotate(90)" fill="#1a1a1a"/>
      </g>
    </g>
  </g>
</svg>
