<?xml version="1.0" encoding="UTF-8"?>
<svg id="IMMIGRATION" xmlns="http://www.w3.org/2000/svg" viewBox="0 0 52.29 40">
  <defs>
    <style>
      .cls-1 {
        fill: none;
      }

      .cls-2 {
        fill: #00bde3;
      }

      .cls-3, .cls-4 {
        fill: #00c1e7;
      }

      .cls-5 {
        fill: #e9f6fb;
      }

      .cls-6 {
        fill: #e8f6fb;
      }

      .cls-7, .cls-8 {
        fill: #fff;
      }

      .cls-9 {
        fill: #1a1a1a;
      }

      .cls-4, .cls-8 {
        stroke: #1a1a1a;
        stroke-miterlimit: 10;
      }
    </style>
  </defs>
  <g>
    <rect class="cls-9" x="0" y="3.23" width="52.29" height="33.55" rx="2.89" ry="2.89"/>
    <path class="cls-6" d="m49.25,35.18H3.05c-.8,0-1.45-.64-1.45-1.43V6.25c0-.79.65-1.43,1.45-1.43h46.2c.8,0,1.45.64,1.45,1.43v27.5c0,.79-.65,1.43-1.45,1.43Z"/>
  </g>
  <g>
    <g>
      <rect class="cls-3" x="29.57" y="10.69" width="1.19" height="11.55" rx=".6" ry=".6" transform="translate(13.7 46.62) rotate(-90)"/>
      <rect class="cls-3" x="29.57" y="14.25" width="1.19" height="11.55" rx=".6" ry=".6" transform="translate(10.14 50.19) rotate(-90)"/>
      <rect class="cls-3" x="29.57" y="17.81" width="1.19" height="11.55" rx=".6" ry=".6" transform="translate(6.58 53.75) rotate(-90)"/>
      <rect class="cls-3" x="29.57" y="21.37" width="1.19" height="11.55" rx=".6" ry=".6" transform="translate(3.01 57.31) rotate(-90)"/>
      <rect class="cls-3" x="29.57" y="24.93" width="1.19" height="11.55" rx=".6" ry=".6" transform="translate(-.55 60.87) rotate(-90)"/>
    </g>
    <g>
      <rect class="cls-3" x="38.62" y="16.83" width="1.19" height="2.49" rx=".6" ry=".6" transform="translate(21.14 57.29) rotate(-90)"/>
      <rect class="cls-3" x="38.62" y="23.61" width="1.19" height="2.49" rx=".6" ry=".6" transform="translate(14.35 64.07) rotate(-90)"/>
    </g>
  </g>
  <rect class="cls-8" x="42.6" y="27.32" width="5.22" height="4.75" rx=".72" ry=".72"/>
  <g>
    <polygon class="cls-3" points="27.81 9.27 27.81 6.46 2.94 6.46 2.94 9.33 24.34 9.33 24.34 12.14 49.2 12.14 49.2 9.27 27.81 9.27"/>
    <rect class="cls-5" x="4.49" y="7.23" width=".53" height="1.38" rx=".27" ry=".27"/>
    <rect class="cls-5" x="6.26" y="7.23" width=".53" height="1.38" rx=".27" ry=".27"/>
    <rect class="cls-5" x="8.04" y="7.23" width=".53" height="1.38" rx=".27" ry=".27"/>
    <rect class="cls-5" x="9.82" y="7.23" width=".53" height="1.38" rx=".27" ry=".27"/>
    <rect class="cls-5" x="11.6" y="7.23" width=".53" height="1.38" rx=".27" ry=".27"/>
    <rect class="cls-5" x="13.38" y="7.23" width=".53" height="1.38" rx=".27" ry=".27"/>
    <rect class="cls-5" x="15.16" y="7.23" width=".53" height="1.38" rx=".27" ry=".27"/>
    <rect class="cls-5" x="16.94" y="7.23" width=".53" height="1.38" rx=".27" ry=".27"/>
    <rect class="cls-5" x="18.71" y="7.23" width=".53" height="1.38" rx=".27" ry=".27"/>
    <rect class="cls-5" x="20.49" y="7.23" width=".53" height="1.38" rx=".27" ry=".27"/>
    <rect class="cls-5" x="22.27" y="7.23" width=".53" height="1.38" rx=".27" ry=".27"/>
    <rect class="cls-5" x="24.05" y="7.23" width=".53" height="1.38" rx=".27" ry=".27"/>
    <rect class="cls-5" x="25.83" y="7.23" width=".53" height="1.38" rx=".27" ry=".27"/>
    <g>
      <rect class="cls-5" x="25.83" y="10.01" width=".53" height="1.38" rx=".27" ry=".27"/>
      <rect class="cls-5" x="27.61" y="10.01" width=".53" height="1.38" rx=".27" ry=".27"/>
      <rect class="cls-5" x="29.39" y="10.01" width=".53" height="1.38" rx=".27" ry=".27"/>
      <rect class="cls-5" x="31.16" y="10.01" width=".53" height="1.38" rx=".27" ry=".27"/>
      <rect class="cls-5" x="32.94" y="10.01" width=".53" height="1.38" rx=".27" ry=".27"/>
      <rect class="cls-5" x="34.72" y="10.01" width=".53" height="1.38" rx=".27" ry=".27"/>
      <rect class="cls-5" x="36.5" y="10.01" width=".53" height="1.38" rx=".27" ry=".27"/>
      <rect class="cls-5" x="38.28" y="10.01" width=".53" height="1.38" rx=".27" ry=".27"/>
      <rect class="cls-5" x="40.06" y="10.01" width=".53" height="1.38" rx=".27" ry=".27"/>
      <rect class="cls-5" x="41.84" y="10.01" width=".53" height="1.38" rx=".27" ry=".27"/>
      <rect class="cls-5" x="43.61" y="10.01" width=".53" height="1.38" rx=".27" ry=".27"/>
      <rect class="cls-5" x="45.39" y="10.01" width=".53" height="1.38" rx=".27" ry=".27"/>
      <rect class="cls-5" x="47.17" y="10.01" width=".53" height="1.38" rx=".27" ry=".27"/>
    </g>
  </g>
  <rect class="cls-7" x="6.53" y="11.97" width="12.16" height="14"/>
  <g>
    <path class="cls-9" d="m18.14,26.44H6.13c-.45,0-.82-.37-.82-.82v-13.3c0-.45.37-.82.82-.82h12.02c.45,0,.82.37.82.82v13.3c0,.45-.37.82-.82.82Zm-11.79-1.05h11.56v-12.85H6.35v12.85Z"/>
    <path class="cls-4" d="m13.53,19.95c.72-.5,1.2-1.37,1.2-2.36,0-1.55-1.17-2.81-2.6-2.81s-2.6,1.26-2.6,2.81c0,.99.48,1.86,1.2,2.36-2.52.62-4.39,2.85-4.39,5.51h11.58c0-2.66-1.87-4.89-4.39-5.51Z"/>
  </g>
  <path class="cls-2" d="m7.86,30.95c-.03-.29-.13-1.45.39-1.09.36.25.48,1.05.54,1.44l1.21-.33c-.1-.59.08-1.34.63-1.66.46-.26,1.09-.15,1.36.32.18.31.73.45.98.13.04-.05.48-.49.48-.5.12.59.85.54,1.14.15.34-.45.91-.03.8.44-.17.69.76,1.08,1.14.48.53-.83,1.55-1.13,2.46-.81.76.27,1.09-.94.33-1.21-1.45-.51-3.06.1-3.87,1.38l1.14.48c.2-.82-.13-1.7-.92-2.06s-1.65-.02-2.16.65l1.14.15c-.11-.54-.6-.9-1.15-.91-.62-.01-1.06.4-1.42.86l.98.13c-.58-1-1.91-1.35-2.94-.83-1.16.59-1.54,1.93-1.34,3.14.13.79,1.33.45,1.21-.33-.15-.95-.71-2.52-1.9-2.49-1.3.04-1.58,1.44-1.49,2.46.07.79,1.32.8,1.25,0h0Z"/>
  <rect class="cls-1" x="26.23" width="3.23" height="3.23"/>
  <rect class="cls-1" x="26.23" y="36.77" width="3.23" height="3.23"/>
</svg>