<?xml version="1.0" encoding="utf-8"?>
<svg version="1.1"
	 id="svg3159" xmlns:cc="http://creativecommons.org/ns#" xmlns:dc="http://purl.org/dc/elements/1.1/" xmlns:rdf="http://www.w3.org/1999/02/22-rdf-syntax-ns#" xmlns:svg="http://www.w3.org/2000/svg"
	 xmlns="http://www.w3.org/2000/svg" xmlns:xlink="http://www.w3.org/1999/xlink" x="0px" y="0px" viewBox="0 0 200 71.6"
	 width="199.98828" height="71.610947"
	 style="enable-background:new 0 0 200 71.6;" xml:space="preserve">
<style type="text/css">
	.st0{fill:#086287;}
	.st1{fill:#81C459;}
</style>
<g>
	<g>
		<g>
			<path class="st0" d="M159.7,59.1L159.7,59.1c-2.9-0.1-4.1-3.5-4.2-3.8l-10-32.8c-0.6-1.9-0.5-3.5,0.4-4.6
				c0.6-0.7,1.7-1.6,3.8-1.6c0.8,0,1.4,0.1,1.4,0.2l33.3,7.8c2.1,0.5,3.5,1.5,3.9,3c0.7,2.4-1.3,4.6-1.5,4.9l-23.3,25
				C162.2,58.4,161,59.1,159.7,59.1z M149.5,19.7c-0.6,0-0.8,0.1-0.8,0.2c-0.2,0.2-0.2,0.3,0.1,1.5l10,32.8c0.2,0.7,0.6,1.4,0.9,1.4
				l0,0c0,0,0.4,0,1.2-0.9l23.3-25c0.4-0.5,0.8-1.2,0.7-1.5c-0.1-0.2-0.3-0.4-1.4-0.6l-33.3-7.8l0,0
				C150.3,19.8,149.9,19.7,149.5,19.7z"/>
		</g>
		<g>
			<path class="st1" d="M155.9,56.4c-1.1,0.4-2.2,0.5-3.1,0.2l0,0c-2.8-0.9-2.9-4.5-2.9-4.9V19.8l3.3,0.7l0,31.3
				c0,0.7,0.2,1.4,0.6,1.5l0,0c0,0,0.2,0.1,0.9-0.2L155.9,56.4z M157.9,51.3l27-15.6c0.5-0.3,1.2-0.8,1.1-1.2c0-0.1-0.1-0.4-0.7-0.8
				l2.3-2.6c1.3,1,1.9,2.1,1.9,3.4c0,2.5-2.6,4-2.9,4.2L159,54.6L157.9,51.3z M182.2,31.9l-26.5-15.4c0,0-0.7-0.4-1-0.5
				c-0.6-0.2-0.8,0-0.9,0c-0.2,0.1-0.2,0.2-0.3,1l-3.4-0.6c0.2-1.4,0.7-2.5,1.7-3.1c0.7-0.5,2-1,4-0.4c0.7,0.2,1.3,0.5,1.3,0.6
				l27.6,15.9L182.2,31.9z"/>
		</g>
	</g>
	<g>
		<path class="st0" d="M133.8,29.9c-0.4-0.2-0.7-0.5-0.9-0.9c-0.2-0.4-0.3-0.8-0.3-1.2c0-0.4,0.1-0.8,0.3-1.2
			c0.2-0.4,0.5-0.7,0.9-0.9c0.4-0.2,0.8-0.3,1.2-0.3c0.4,0,0.8,0.1,1.2,0.3s0.7,0.5,0.9,0.9s0.3,0.8,0.3,1.2c0,0.4-0.1,0.8-0.3,1.2
			c-0.2,0.4-0.5,0.7-0.9,0.9c-0.4,0.2-0.8,0.3-1.2,0.3C134.5,30.3,134.1,30.1,133.8,29.9z M136,29.6c0.3-0.2,0.6-0.4,0.8-0.8
			c0.2-0.3,0.3-0.7,0.3-1.1c0-0.4-0.1-0.7-0.3-1c-0.2-0.3-0.4-0.6-0.8-0.8c-0.3-0.2-0.7-0.3-1.1-0.3c-0.4,0-0.7,0.1-1,0.3
			c-0.3,0.2-0.6,0.4-0.8,0.8c-0.2,0.3-0.3,0.7-0.3,1c0,0.4,0.1,0.7,0.3,1.1c0.2,0.3,0.4,0.6,0.8,0.8c0.3,0.2,0.7,0.3,1,0.3
			C135.4,29.9,135.7,29.8,136,29.6z M134,29.1c0,0-0.1-0.1-0.1-0.2v-2.2c0-0.1,0-0.2,0.1-0.2c0.1-0.1,0.1-0.1,0.2-0.1h0.8
			c0.4,0,0.6,0.1,0.8,0.2c0.2,0.1,0.3,0.4,0.3,0.6c0,0.2,0,0.3-0.1,0.4c-0.1,0.1-0.2,0.2-0.4,0.2c0.1,0,0.2,0.1,0.3,0.3
			c0.1,0.1,0.1,0.3,0.1,0.6V29c0,0.1,0,0.1-0.1,0.2s-0.1,0.1-0.2,0.1c-0.1,0-0.1,0-0.2-0.1s-0.1-0.1-0.1-0.2v-0.1
			c0-0.2,0-0.4-0.1-0.5c-0.1-0.1-0.2-0.2-0.4-0.2h-0.7V29c0,0.1,0,0.1-0.1,0.2c0,0-0.1,0.1-0.2,0.1C134.1,29.2,134.1,29.2,134,29.1z
			 M135.1,27.7c0.2,0,0.4,0,0.5-0.1c0.1-0.1,0.2-0.2,0.2-0.3c0-0.1,0-0.2-0.1-0.3c-0.1-0.1-0.3-0.1-0.5-0.1h-0.6v0.9H135.1z"/>
	</g>
	<g>
		<path class="st0" d="M15.9,46.9c-1.7-0.9-3-2.2-4-4c-1-1.7-1.4-3.7-1.4-6s0.5-4.3,1.4-6c1-1.7,2.3-3,4-4c1.7-0.9,3.6-1.4,5.7-1.4
			c1.4,0,2.7,0.2,3.8,0.5c1.1,0.3,2.3,0.8,3.4,1.5c0.5,0.2,0.7,0.7,0.7,1.2c0,0.3-0.1,0.6-0.4,0.8c-0.2,0.2-0.5,0.4-0.9,0.4
			c-0.2,0-0.4,0-0.6-0.1c-0.9-0.5-1.8-0.9-2.7-1.1c-0.9-0.2-1.9-0.4-3.1-0.4c-1.8,0-3.4,0.4-4.6,1.1c-1.3,0.7-2.2,1.8-2.9,3.1
			c-0.6,1.3-1,2.8-1,4.4s0.3,3.1,1,4.4c0.6,1.3,1.6,2.3,2.9,3.1c1.3,0.7,2.8,1.1,4.6,1.1c1.2,0,2.2-0.1,3.1-0.4
			c0.9-0.2,1.8-0.6,2.7-1.1c0.2-0.1,0.4-0.1,0.6-0.1c0.4,0,0.7,0.1,0.9,0.4c0.2,0.2,0.4,0.5,0.4,0.9c0,0.5-0.2,1-0.7,1.2
			c-1.1,0.6-2.2,1.1-3.4,1.5c-1.1,0.3-2.4,0.5-3.8,0.5C19.5,48.2,17.6,47.8,15.9,46.9z"/>
		<path class="st0" d="M32.8,28c-0.3-0.3-0.5-0.7-0.5-1.1v-0.1c0-0.4,0.2-0.8,0.5-1.1c0.3-0.3,0.7-0.5,1.1-0.5h0.2
			c0.4,0,0.8,0.2,1.1,0.5c0.3,0.3,0.5,0.7,0.5,1.1v0.1c0,0.4-0.2,0.8-0.5,1.1c-0.3,0.3-0.7,0.5-1.1,0.5H34
			C33.5,28.5,33.1,28.3,32.8,28z M33,47.7c-0.3-0.3-0.4-0.6-0.4-1V33.1c0-0.4,0.1-0.7,0.4-1c0.3-0.3,0.6-0.4,1-0.4
			c0.4,0,0.8,0.1,1,0.4c0.3,0.3,0.4,0.6,0.4,1v13.6c0,0.4-0.1,0.7-0.4,1c-0.3,0.3-0.6,0.4-1,0.4C33.6,48.1,33.3,47.9,33,47.7z"/>
		<path class="st0" d="M44.5,47.7c-0.3-0.2-0.5-0.5-0.7-0.8l-5.5-13.2c-0.1-0.2-0.2-0.5-0.2-0.7c0-0.4,0.1-0.7,0.4-1
			c0.3-0.3,0.6-0.4,1-0.4c0.3,0,0.5,0.1,0.8,0.2c0.2,0.2,0.4,0.4,0.5,0.6l4.8,12.3l4.8-12.3c0.1-0.2,0.3-0.4,0.5-0.6
			c0.2-0.2,0.5-0.2,0.8-0.2c0.4,0,0.7,0.1,1,0.4c0.3,0.3,0.4,0.6,0.4,1c0,0.2-0.1,0.4-0.2,0.7l-5.5,13.2c-0.1,0.3-0.4,0.6-0.7,0.8
			c-0.3,0.2-0.7,0.3-1,0.3h-0.3C45.2,48.1,44.9,48,44.5,47.7z"/>
		<path class="st0" d="M56.2,28c-0.3-0.3-0.5-0.7-0.5-1.1v-0.1c0-0.4,0.2-0.8,0.5-1.1c0.3-0.3,0.7-0.5,1.1-0.5h0.2
			c0.4,0,0.8,0.2,1.1,0.5c0.3,0.3,0.5,0.7,0.5,1.1v0.1c0,0.4-0.2,0.8-0.5,1.1c-0.3,0.3-0.7,0.5-1.1,0.5h-0.2
			C56.9,28.5,56.5,28.3,56.2,28z M56.4,47.7c-0.3-0.3-0.4-0.6-0.4-1V33.1c0-0.4,0.1-0.7,0.4-1c0.3-0.3,0.6-0.4,1-0.4
			c0.4,0,0.8,0.1,1,0.4c0.3,0.3,0.4,0.6,0.4,1v13.6c0,0.4-0.1,0.7-0.4,1c-0.3,0.3-0.6,0.4-1,0.4C57,48.1,56.7,47.9,56.4,47.7z"/>
		<path class="st0" d="M67.3,46.9c-1.7-0.9-3-2.2-4-4c-1-1.7-1.4-3.7-1.4-6s0.5-4.3,1.4-6c1-1.7,2.3-3,4-4c1.7-0.9,3.6-1.4,5.7-1.4
			c1.4,0,2.7,0.2,3.8,0.5c1.1,0.3,2.3,0.8,3.4,1.5c0.5,0.2,0.7,0.7,0.7,1.2c0,0.3-0.1,0.6-0.4,0.8c-0.2,0.2-0.5,0.4-0.9,0.4
			c-0.2,0-0.4,0-0.6-0.1c-0.9-0.5-1.8-0.9-2.7-1.1c-0.9-0.2-1.9-0.4-3.1-0.4c-1.8,0-3.4,0.4-4.6,1.1c-1.3,0.7-2.2,1.8-2.9,3.1
			c-0.6,1.3-1,2.8-1,4.4s0.3,3.1,1,4.4c0.6,1.3,1.6,2.3,2.9,3.1c1.3,0.7,2.8,1.1,4.6,1.1c1.2,0,2.2-0.1,3.1-0.4
			c0.9-0.2,1.8-0.6,2.7-1.1c0.2-0.1,0.4-0.1,0.6-0.1c0.4,0,0.7,0.1,0.9,0.4c0.2,0.2,0.4,0.5,0.4,0.9c0,0.5-0.2,1-0.7,1.2
			c-1.1,0.6-2.2,1.1-3.4,1.5c-1.1,0.3-2.4,0.5-3.8,0.5C70.8,48.2,68.9,47.8,67.3,46.9z"/>
		<path class="st0" d="M84.6,47.7c-0.3-0.3-0.4-0.6-0.4-1V27.3c0-0.4,0.1-0.7,0.4-1s0.6-0.4,1-0.4H93c2.9,0,5,0.6,6.5,1.8
			c1.4,1.2,2.2,2.7,2.2,4.7c0,1.3-0.4,2.4-1.1,3.5c-0.7,1-1.7,1.8-3.1,2.3c1.5,0.4,2.6,1.3,3.1,2.8s0.8,3,0.8,4.4v1.5
			c0,0.4-0.1,0.7-0.4,1c-0.3,0.3-0.6,0.4-1,0.4c-0.4,0-0.8-0.1-1.1-0.4c-0.3-0.3-0.4-0.6-0.4-1v-1c0-1.1-0.1-2-0.3-2.9
			c-0.2-0.9-0.6-1.7-1.4-2.4c-0.7-0.7-1.8-1.1-3.3-1.1h-6.6v7.3c0,0.4-0.1,0.7-0.4,1c-0.3,0.3-0.6,0.4-1,0.4
			C85.2,48.1,84.9,47.9,84.6,47.7z M92.8,36.6c1.8,0,3.3-0.4,4.3-1.1c1.1-0.7,1.6-1.7,1.6-3c0-1.3-0.5-2.2-1.4-2.9
			c-0.9-0.7-2.5-1-4.7-1h-5.6v8H92.8z"/>
		<path class="st0" d="M105.5,47.7c-0.3-0.3-0.4-0.6-0.4-1V27.7c0-0.6,0.2-1.1,0.6-1.5c0.4-0.4,0.9-0.6,1.5-0.6h1
			c0.4,0,0.8,0.1,1.2,0.4c0.4,0.3,0.6,0.6,0.8,1l7.2,17.9l7.2-17.9c0.2-0.4,0.4-0.7,0.8-1c0.4-0.2,0.7-0.4,1.2-0.4h1
			c0.6,0,1.1,0.2,1.5,0.6c0.4,0.4,0.6,0.9,0.6,1.5v18.9c0,0.4-0.1,0.7-0.4,1c-0.3,0.3-0.6,0.4-1,0.4c-0.4,0-0.7-0.1-1-0.4
			c-0.3-0.3-0.4-0.6-0.4-1v-18l-7.3,18.1c-0.2,0.4-0.4,0.7-0.8,1c-0.4,0.2-0.8,0.4-1.2,0.4c-0.4,0-0.8-0.1-1.2-0.4
			c-0.4-0.2-0.6-0.6-0.8-1l-7.3-18.1v18c0,0.4-0.1,0.7-0.4,1c-0.3,0.3-0.6,0.4-1,0.4C106.1,48.1,105.8,47.9,105.5,47.7z"/>
	</g>
</g>
</svg>
