<svg width="45" height="45" viewBox="0 0 45 45" fill="none" xmlns="http://www.w3.org/2000/svg">
<path fill-rule="evenodd" clip-rule="evenodd" d="M19.3615 6.87503C19.3615 9.34055 17.3702 11.339 14.914 11.339C12.4577 11.339 10.4668 9.34055 10.4668 6.87503C10.4668 4.40952 12.4577 2.41064 14.914 2.41064C17.3702 2.41064 19.3615 4.40952 19.3615 6.87503ZM8.16876 14.0905C8.21113 13.7927 8.46612 13.5714 8.76692 13.5714H21.0597C21.2014 13.5714 21.3386 13.6212 21.4473 13.7122L21.8974 14.0886L27.7819 19.0109C27.8906 19.1018 28.0279 19.1516 28.1696 19.1516H36.6396C36.9351 19.1516 37.1872 19.3654 37.2356 19.6569L39.2586 31.8413C39.3197 32.2094 39.0358 32.5444 38.6626 32.5444H36.6439C36.3102 32.5444 36.0397 32.8149 36.0397 33.1486V41.9848C36.0397 42.3185 35.7692 42.589 35.4356 42.589H32.1964C31.8627 42.589 31.5922 42.3185 31.5922 41.9848V29.8004C31.5922 29.4667 31.8627 29.1962 32.1964 29.1962H33.1034C33.4766 29.1962 33.7605 28.8612 33.6994 28.4931L33.1494 25.181L32.9172 23.6288C32.9161 23.6215 32.9097 23.616 32.9023 23.616C32.895 23.616 32.8887 23.6107 32.8875 23.6035L32.7881 23.005C32.7397 22.7135 32.4875 22.4998 32.1921 22.4998H25.1431C24.9997 22.4998 24.861 22.4489 24.7518 22.356L19.8378 18.1793C19.7286 18.0864 19.5899 18.0355 19.4466 18.0355H13.0262C12.7157 18.0355 12.4558 18.2708 12.425 18.5797L11.8783 24.0678C11.8428 24.4234 12.1221 24.7318 12.4795 24.7318H13.1985C13.5322 24.7318 13.8027 25.0023 13.8027 25.336V41.985C13.8027 42.3187 13.5322 42.5892 13.1985 42.5892H9.95929C9.62561 42.5892 9.35511 42.3187 9.35511 41.985V29.8006C9.35511 29.4669 9.08461 29.1964 8.75093 29.1964H6.71576C6.34822 29.1964 6.06583 28.871 6.1176 28.5071L8.16876 14.0905ZM20.4737 25.3356C20.4737 25.0019 20.2032 24.7314 19.8695 24.7314H16.6303C16.2966 24.7314 16.0261 25.0019 16.0261 25.3356V41.9846C16.0261 42.3183 16.2966 42.5888 16.6303 42.5888H19.8695C20.2032 42.5888 20.4737 42.3183 20.4737 41.9846V25.3356ZM24.9209 25.3356C24.9209 25.0019 25.1914 24.7314 25.5251 24.7314H28.7643C29.098 24.7314 29.3685 25.0019 29.3685 25.3356V41.9846C29.3685 42.3183 29.098 42.5888 28.7643 42.5888H25.5251C25.1914 42.5888 24.9209 42.3183 24.9209 41.9846V25.3356ZM34.9276 12.455C34.9276 14.9206 32.9367 16.9194 30.4804 16.9194C28.0242 16.9194 26.0329 14.9206 26.0329 12.455C26.0329 9.98953 28.0242 7.99065 30.4804 7.99065C32.9367 7.99065 34.9276 9.98953 34.9276 12.455Z" fill="#E9F6FB" stroke="#1B1B1B" stroke-width="3.45912"/>
<path fill-rule="evenodd" clip-rule="evenodd" d="M19.3615 6.87503C19.3615 9.34055 17.3702 11.339 14.914 11.339C12.4577 11.339 10.4668 9.34055 10.4668 6.87503C10.4668 4.40952 12.4577 2.41064 14.914 2.41064C17.3702 2.41064 19.3615 4.40952 19.3615 6.87503ZM8.16876 14.0905C8.21113 13.7927 8.46612 13.5714 8.76692 13.5714H21.0597C21.2014 13.5714 21.3386 13.6212 21.4473 13.7122L21.8974 14.0886L27.7819 19.0109C27.8906 19.1018 28.0279 19.1516 28.1696 19.1516H36.6396C36.9351 19.1516 37.1872 19.3654 37.2356 19.6569L39.2586 31.8413C39.3197 32.2094 39.0358 32.5444 38.6626 32.5444H36.6439C36.3102 32.5444 36.0397 32.8149 36.0397 33.1486V41.9848C36.0397 42.3185 35.7692 42.589 35.4356 42.589H32.1964C31.8627 42.589 31.5922 42.3185 31.5922 41.9848V29.8004C31.5922 29.4667 31.8627 29.1962 32.1964 29.1962H33.1034C33.4766 29.1962 33.7605 28.8612 33.6994 28.4931L33.1494 25.181L32.9172 23.6288C32.9161 23.6215 32.9097 23.616 32.9023 23.616C32.895 23.616 32.8887 23.6107 32.8875 23.6035L32.7881 23.005C32.7397 22.7135 32.4875 22.4998 32.1921 22.4998H25.1431C24.9997 22.4998 24.861 22.4489 24.7518 22.356L19.8378 18.1793C19.7286 18.0864 19.5899 18.0355 19.4466 18.0355H13.0262C12.7157 18.0355 12.4558 18.2708 12.425 18.5797L11.8783 24.0678C11.8428 24.4234 12.1221 24.7318 12.4795 24.7318H13.1985C13.5322 24.7318 13.8027 25.0023 13.8027 25.336V41.985C13.8027 42.3187 13.5322 42.5892 13.1985 42.5892H9.95929C9.62561 42.5892 9.35511 42.3187 9.35511 41.985V29.8006C9.35511 29.4669 9.08461 29.1964 8.75093 29.1964H6.71576C6.34822 29.1964 6.06583 28.871 6.1176 28.5071L8.16876 14.0905ZM20.4737 25.3356C20.4737 25.0019 20.2032 24.7314 19.8695 24.7314H16.6303C16.2966 24.7314 16.0261 25.0019 16.0261 25.3356V41.9846C16.0261 42.3183 16.2966 42.5888 16.6303 42.5888H19.8695C20.2032 42.5888 20.4737 42.3183 20.4737 41.9846V25.3356ZM24.9209 25.3356C24.9209 25.0019 25.1914 24.7314 25.5251 24.7314H28.7643C29.098 24.7314 29.3685 25.0019 29.3685 25.3356V41.9846C29.3685 42.3183 29.098 42.5888 28.7643 42.5888H25.5251C25.1914 42.5888 24.9209 42.3183 24.9209 41.9846V25.3356ZM34.9276 12.455C34.9276 14.9206 32.9367 16.9194 30.4804 16.9194C28.0242 16.9194 26.0329 14.9206 26.0329 12.455C26.0329 9.98953 28.0242 7.99065 30.4804 7.99065C32.9367 7.99065 34.9276 9.98953 34.9276 12.455Z" fill="white" stroke="#00C1E7" stroke-width="0.71159"/>
</svg>
