<?xml version="1.0" encoding="utf-8"?>
<!-- Generator: Adobe Illustrator 27.4.1, SVG Export Plug-In . SVG Version: 6.00 Build 0)  -->
<svg version="1.1" id="Layer_1" xmlns="http://www.w3.org/2000/svg" xmlns:xlink="http://www.w3.org/1999/xlink" x="0px" y="0px"
	 viewBox="0 0 32 32" style="enable-background:new 0 0 32 32;" xml:space="preserve">
<style type="text/css">
	.st0{fill:none;}
	.st1{fill:#212121;}
</style>
<g id="Group_5156" transform="translate(-1364 -840)">
	<g id="Rectangle_166" transform="translate(1364 840)">
		<path class="st0" d="M3,0h26c1.7,0,3,1.3,3,3v26c0,1.7-1.3,3-3,3H3c-1.7,0-3-1.3-3-3V3C0,1.3,1.3,0,3,0z"/>
		<g>
			<path class="st1" d="M29,32H3c-1.7,0-3-1.3-3-3V3c0-1.7,1.3-3,3-3h26c1.7,0,3,1.3,3,3v26C32,30.7,30.7,32,29,32z M3,2
				C2.4,2,2,2.4,2,3v26c0,0.6,0.4,1,1,1h26c0.6,0,1-0.4,1-1V3c0-0.6-0.4-1-1-1H3z"/>
		</g>
	</g>
	<path id="Icon_zocial-email" d="M1371.1,861v-10c0,0,0-0.1,0.1-0.3l5.9,5l-5.8,5.6C1371.1,861.3,1371.1,861.2,1371.1,861z
		 M1371.8,850.1c0.1,0,0.2-0.1,0.3-0.1h15.8c0.1,0,0.2,0,0.3,0.1l-5.9,5l-0.8,0.6l-1.5,1.3l-1.5-1.3l-0.8-0.6L1371.8,850.1z
		 M1371.9,862.1l5.9-5.7l2.3,1.9l2.3-1.9l5.9,5.7c-0.1,0-0.2,0.1-0.3,0.1h-15.8C1372,862.1,1371.9,862.1,1371.9,862.1z
		 M1383.1,855.8l5.8-5c0,0.1,0.1,0.2,0.1,0.3v10c0,0.1,0,0.2-0.1,0.3L1383.1,855.8z"/>
</g>
</svg>
