<?xml version="1.0" encoding="utf-8"?>
<!-- Generator: Adobe Illustrator 27.4.1, SVG Export Plug-In . SVG Version: 6.00 Build 0)  -->
<svg version="1.1" id="Layer_1" xmlns="http://www.w3.org/2000/svg" xmlns:xlink="http://www.w3.org/1999/xlink" x="0px" y="0px"
	 viewBox="0 0 32 32" style="enable-background:new 0 0 32 32;" xml:space="preserve">
<style type="text/css">
	.st0{fill:none;}
	.st1{fill:#212121;}
	.st2{fill:#1B1B1B;}
</style>
<g id="Group_5100" transform="translate(-1296 -858)">
	<g id="Rectangle_105" transform="translate(1296 858)">
		<path class="st0" d="M3,0h26c1.7,0,3,1.3,3,3v26c0,1.7-1.3,3-3,3H3c-1.7,0-3-1.3-3-3V3C0,1.3,1.3,0,3,0z"/>
		<g>
			<path class="st1" d="M29,32H3c-1.7,0-3-1.3-3-3V3c0-1.7,1.3-3,3-3h26c1.7,0,3,1.3,3,3v26C32,30.7,30.7,32,29,32z M3,2
				C2.4,2,2,2.4,2,3v26c0,0.6,0.4,1,1,1h26c0.6,0,1-0.4,1-1V3c0-0.6-0.4-1-1-1H3z"/>
		</g>
	</g>
	<path id="Path_243" class="st2" d="M1320,874c0-4.4-3.6-8-8-8c-4.4,0-8,3.6-8,8c0,3.8,2.7,7.1,6.4,7.9v-5.5h-1.6V874h1.6v-2
		c0-1.5,1.3-2.8,2.8-2.8h2v2.4h-1.6c-0.4,0-0.8,0.4-0.8,0.8v1.6h2.4v2.4h-2.4v5.6C1316.9,881.6,1320,878.1,1320,874z"/>
</g>
</svg>
